<svg width="24" height="25" viewBox="0 0 24 25" fill="none" xmlns="http://www.w3.org/2000/svg">
<path fill-rule="evenodd" clip-rule="evenodd" d="M9.429 9.35718H13.143V11.2072C13.678 10.1432 15.05 9.18718 17.111 9.18718C21.062 9.18718 22 11.3052 22 15.1912V22.3882H18V16.0762C18 13.8632 17.465 12.6152 16.103 12.6152C14.214 12.6152 13.429 13.9602 13.429 16.0752V22.3882H9.429V9.35718ZM2.57 22.2182H6.57V9.18718H2.57V22.2182ZM7.143 4.93818C7.14315 5.27346 7.07666 5.60542 6.94739 5.91477C6.81812 6.22412 6.62865 6.5047 6.39 6.74018C5.9064 7.22081 5.25181 7.48984 4.57 7.48818C3.88939 7.48773 3.23631 7.21938 2.752 6.74118C2.51421 6.5049 2.32539 6.22401 2.19634 5.91462C2.0673 5.60522 2.00058 5.27341 2 4.93818C2 4.26118 2.27 3.61318 2.753 3.13518C3.23689 2.65634 3.89024 2.38788 4.571 2.38818C5.253 2.38818 5.907 2.65718 6.39 3.13518C6.872 3.61318 7.143 4.26118 7.143 4.93818Z" fill="#0E2333"/>
</svg>
