<svg width="16" height="17" viewBox="0 0 16 17" fill="none" xmlns="http://www.w3.org/2000/svg">
<path d="M1.33301 4.79989C1.33301 4.44626 1.47348 4.10713 1.72353 3.85708C1.97358 3.60703 2.31272 3.46655 2.66634 3.46655H13.333C13.6866 3.46655 14.0258 3.60703 14.2758 3.85708C14.5259 4.10713 14.6663 4.44626 14.6663 4.79989V12.7999C14.6663 13.1535 14.5259 13.4926 14.2758 13.7427C14.0258 13.9927 13.6866 14.1332 13.333 14.1332H2.66634C2.31272 14.1332 1.97358 13.9927 1.72353 13.7427C1.47348 13.4926 1.33301 13.1535 1.33301 12.7999V4.79989Z" stroke="#E33C08" stroke-linecap="round" stroke-linejoin="round"/>
<path d="M1.33301 6.13306L6.33368 10.1337C6.80653 10.5121 7.39409 10.7182 7.99968 10.7182C8.60526 10.7182 9.19282 10.5121 9.66568 10.1337L14.6663 6.13306" stroke="#E33C08" stroke-linecap="round" stroke-linejoin="round"/>
</svg>
