<svg width="24" height="25" viewBox="0 0 24 25" fill="none" xmlns="http://www.w3.org/2000/svg">
<path fill-rule="evenodd" clip-rule="evenodd" d="M7.465 1.45418C8.638 1.40018 9.012 1.38818 12 1.38818C14.988 1.38818 15.362 1.40118 16.534 1.45418C17.706 1.50718 18.506 1.69418 19.206 1.96518C19.939 2.24218 20.604 2.67518 21.154 3.23518C21.714 3.78418 22.146 4.44818 22.422 5.18218C22.694 5.88218 22.88 6.68218 22.934 7.85218C22.988 9.02718 23 9.40118 23 12.3882C23 15.3762 22.987 15.7502 22.934 16.9232C22.881 18.0932 22.694 18.8932 22.422 19.5932C22.146 20.3273 21.7133 20.9924 21.154 21.5422C20.604 22.1022 19.939 22.5342 19.206 22.8102C18.506 23.0822 17.706 23.2682 16.536 23.3222C15.362 23.3762 14.988 23.3882 12 23.3882C9.012 23.3882 8.638 23.3752 7.465 23.3222C6.295 23.2692 5.495 23.0822 4.795 22.8102C4.06092 22.5341 3.39582 22.1014 2.846 21.5422C2.28638 20.9929 1.85331 20.3281 1.577 19.5942C1.306 18.8942 1.12 18.0942 1.066 16.9242C1.012 15.7492 1 15.3752 1 12.3882C1 9.40018 1.013 9.02618 1.066 7.85418C1.119 6.68218 1.306 5.88218 1.577 5.18218C1.85372 4.44827 2.28712 3.7835 2.847 3.23418C3.39604 2.67468 4.06047 2.24163 4.794 1.96518C5.494 1.69418 6.294 1.50818 7.464 1.45418H7.465ZM16.445 3.43418C15.285 3.38118 14.937 3.37018 12 3.37018C9.063 3.37018 8.715 3.38118 7.555 3.43418C6.482 3.48318 5.9 3.66218 5.512 3.81318C4.999 4.01318 4.632 4.25018 4.247 4.63518C3.88205 4.99024 3.60118 5.42247 3.425 5.90018C3.274 6.28818 3.095 6.87018 3.046 7.94318C2.993 9.10318 2.982 9.45118 2.982 12.3882C2.982 15.3252 2.993 15.6732 3.046 16.8332C3.095 17.9062 3.274 18.4882 3.425 18.8762C3.601 19.3532 3.882 19.7862 4.247 20.1412C4.602 20.5062 5.035 20.7872 5.512 20.9632C5.9 21.1142 6.482 21.2932 7.555 21.3422C8.715 21.3952 9.062 21.4062 12 21.4062C14.938 21.4062 15.285 21.3952 16.445 21.3422C17.518 21.2932 18.1 21.1142 18.488 20.9632C19.001 20.7632 19.368 20.5262 19.753 20.1412C20.118 19.7862 20.399 19.3532 20.575 18.8762C20.726 18.4882 20.905 17.9062 20.954 16.8332C21.007 15.6732 21.018 15.3252 21.018 12.3882C21.018 9.45118 21.007 9.10318 20.954 7.94318C20.905 6.87018 20.726 6.28818 20.575 5.90018C20.375 5.38718 20.138 5.02018 19.753 4.63518C19.3979 4.27025 18.9657 3.98939 18.488 3.81318C18.1 3.66218 17.518 3.48318 16.445 3.43418ZM10.595 15.7792C11.3797 16.1058 12.2534 16.1499 13.0669 15.9039C13.8805 15.6579 14.5834 15.1371 15.0556 14.4304C15.5278 13.7238 15.7401 12.8751 15.656 12.0293C15.572 11.1835 15.197 10.3932 14.595 9.79318C14.2112 9.40966 13.7472 9.116 13.2363 8.93333C12.7255 8.75067 12.1804 8.68354 11.6405 8.7368C11.1006 8.79005 10.5792 8.96236 10.1138 9.24131C9.64845 9.52027 9.25074 9.89893 8.9493 10.35C8.64786 10.8011 8.45019 11.3135 8.37052 11.8501C8.29084 12.3868 8.33115 12.9345 8.48854 13.4537C8.64593 13.9729 8.91648 14.4508 9.28072 14.8529C9.64496 15.255 10.0938 15.5714 10.595 15.7792ZM8.002 8.39018C8.52702 7.86516 9.15032 7.44869 9.8363 7.16455C10.5223 6.8804 11.2575 6.73416 12 6.73416C12.7425 6.73416 13.4777 6.8804 14.1637 7.16454C14.8497 7.44869 15.473 7.86516 15.998 8.39018C16.523 8.91521 16.9395 9.5385 17.2236 10.2245C17.5078 10.9105 17.654 11.6457 17.654 12.3882C17.654 13.1307 17.5078 13.8659 17.2236 14.5519C16.9395 15.2379 16.523 15.8612 15.998 16.3862C14.9377 17.4465 13.4995 18.0422 12 18.0422C10.5005 18.0422 9.06234 17.4465 8.002 16.3862C6.94166 15.3258 6.34597 13.8877 6.34597 12.3882C6.34597 10.8886 6.94166 9.45052 8.002 8.39018ZM18.908 7.57618C19.0381 7.45345 19.1423 7.30586 19.2143 7.14216C19.2863 6.97845 19.3248 6.80195 19.3274 6.62311C19.33 6.44427 19.2967 6.26673 19.2295 6.10099C19.1622 5.93526 19.0624 5.78469 18.936 5.65822C18.8095 5.53175 18.6589 5.43194 18.4932 5.3647C18.3275 5.29746 18.1499 5.26416 17.9711 5.26677C17.7922 5.26937 17.6157 5.30784 17.452 5.37988C17.2883 5.45192 17.1407 5.55608 17.018 5.68618C16.7793 5.93921 16.6486 6.2753 16.6537 6.62311C16.6588 6.97092 16.7992 7.30306 17.0452 7.54903C17.2911 7.79499 17.6233 7.93541 17.9711 7.94048C18.3189 7.94555 18.655 7.81487 18.908 7.57618Z" fill="#0E2333"/>
</svg>
